<svg xmlns="http://www.w3.org/2000/svg" width="128" height="128" viewBox="0 0 128 128" role="img" aria-labelledby="title"><title id="title">Ember Sunset symbol</title><defs><linearGradient id="left" x1="15%" y1="0%" x2="75%" y2="100%"><stop stop-color="#ffe8ab"/><stop offset=".5" stop-color="#ffbd70"/><stop offset="1" stop-color="#ff866f"/></linearGradient><linearGradient id="right" x1="15%" y1="0%" x2="75%" y2="100%"><stop stop-color="#ffc76e"/><stop offset=".5" stop-color="#ff8666"/><stop offset="1" stop-color="#e74887"/></linearGradient></defs><g transform="translate(14 12)"><path fill="url(#left)" d="M42 9C46 32 19 45 17 66C15 81 24 93 42 97C29 84 31 72 38 59C48 42 49 27 42 9Z"/><path fill="url(#right)" d="M66 25C70 45 48 57 45 74C43 87 52 97 65 96C81 95 91 81 87 65C83 74 74 79 65 77C76 60 77 43 66 25Z"/></g></svg>
